<?xml version="1.0" standalone="no"?>
<!DOCTYPE svg PUBLIC "-//W3C//DTD SVG 20010904//EN"
 "http://www.w3.org/TR/2001/REC-SVG-20010904/DTD/svg10.dtd">
<svg version="1.0" xmlns="http://www.w3.org/2000/svg"
 width="100.000000pt" height="100.000000pt" viewBox="0 0 100.000000 100.000000"
 preserveAspectRatio="xMidYMid meet">
<metadata>
Created by potrace 1.10, written by Peter Selinger 2001-2011
</metadata>
<g transform="translate(0.000000,100.000000) scale(0.050000,-0.050000)"
fill="#000000" stroke="none">
<path d="M125 1364 c-57 -6 -65 -14 -65 -65 0 -91 131 -89 144 2 11 70 8 72
-79 63z"/>
<path d="M398 1329 c-112 -58 -127 -111 -135 -454 l-7 -315 72 0 72 0 0 291
c0 282 1 292 49 340 66 66 96 63 77 -6 -19 -70 -19 -143 1 -200 13 -37 9 -45
-26 -45 -33 0 -41 -13 -41 -66 l0 -67 104 14 c57 7 136 5 175 -4 113 -26 121
-23 121 53 0 53 -8 70 -35 70 -30 0 -35 21 -35 150 0 164 8 174 81 101 44 -45
49 -65 49 -221 l0 -173 65 7 c37 3 64 17 63 31 -1 14 -3 103 -5 197 -3 172 -4
173 -79 248 l-75 76 -220 0 c-146 0 -237 -9 -271 -27z m305 -121 c-36 -26 -43
-43 -32 -92 13 -60 -48 -156 -99 -156 -11 0 -1 14 24 31 32 23 44 52 44 104 0
70 45 145 88 145 11 0 0 -14 -25 -32z"/>
<path d="M1216 1326 c-86 -54 -106 -114 -106 -324 l0 -192 68 0 68 0 -4 164
c-5 200 15 246 108 246 95 0 115 -46 107 -247 l-7 -163 70 0 70 0 -7 162 c-9
201 12 248 107 248 93 0 113 -46 108 -246 l-4 -164 68 0 68 0 6 155 c12 329
-135 479 -358 364 -53 -27 -63 -27 -103 0 -57 40 -191 39 -259 -3z"/>
<path d="M73 1207 c-7 -8 -13 -102 -13 -210 l0 -197 70 0 70 0 0 210 0 210
-57 0 c-31 0 -62 -6 -70 -13z"/>
</g>
</svg>
